{
  "accessors": [
    {
      "bufferView": 2,
      "componentType": 5126,
      "count": 160,
      "max": [
        0.11156529188156128,
        0.3998751640319824,
        0.39987561106681824
      ],
      "min": [
        -0.12632673978805542,
        -0.3998764753341675,
        -0.3998759388923645
      ],
      "type": "VEC3"
    },
    {
      "bufferView": 2,
      "byteOffset": 1920,
      "componentType": 5126,
      "count": 160,
      "max": [
        1.0,
        1.0,
        1.0
      ],
      "min": [
        -1.0,
        -1.0,
        -1.0
      ],
      "type": "VEC3"
    },
    {
      "bufferView": 1,
      "componentType": 5126,
      "count": 160,
      "max": [
        0.4991581439971924,
        0.12094010412693024
      ],
      "min": [
        0.14459310472011566,
        0.00407198304310441
      ],
      "type": "VEC2"
    },
    {
      "bufferView": 0,
      "componentType": 5125,
      "count": 468,
      "type": "SCALAR"
    },
    {
      "bufferView": 2,
      "byteOffset": 3840,
      "componentType": 5126,
      "count": 4428,
      "max": [
        1.2800779342651367,
        2.832873821258545,
        1.9056954383850098
      ],
      "min": [
        -1.2049622535705566,
        -2.967071056365967,
        0.22922980785369873
      ],
      "type": "VEC3"
    },
    {
      "bufferView": 2,
      "byteOffset": 56976,
      "componentType": 5126,
      "count": 4428,
      "max": [
        1.0,
        1.0,
        1.0
      ],
      "min": [
        -1.0,
        -1.0,
        -1.0
      ],
      "type": "VEC3"
    },
    {
      "bufferView": 1,
      "byteOffset": 1280,
      "componentType": 5126,
      "count": 4428,
      "max": [
        0.8960323333740234,
        0.8500142693519592
      ],
      "min": [
        0.021988041698932648,
        0.0
      ],
      "type": "VEC2"
    },
    {
      "bufferView": 0,
      "byteOffset": 1872,
      "componentType": 5125,
      "count": 11352,
      "type": "SCALAR"
    },
    {
      "bufferView": 2,
      "byteOffset": 110112,
      "componentType": 5126,
      "count": 160,
      "max": [
        0.11156529188156128,
        0.39987635612487793,
        0.3998755216598511
      ],
      "min": [
        -0.12632673978805542,
        -0.3998754024505615,
        -0.39987602829933167
      ],
      "type": "VEC3"
    },
    {
      "bufferView": 2,
      "byteOffset": 112032,
      "componentType": 5126,
      "count": 160,
      "max": [
        1.0,
        1.0,
        1.0
      ],
      "min": [
        -1.0,
        -1.0,
        -1.0
      ],
      "type": "VEC3"
    },
    {
      "bufferView": 1,
      "byteOffset": 36704,
      "componentType": 5126,
      "count": 160,
      "max": [
        0.4991581439971924,
        0.12094010412693024
      ],
      "min": [
        0.14459310472011566,
        0.00407198304310441
      ],
      "type": "VEC2"
    },
    {
      "bufferView": 0,
      "byteOffset": 47280,
      "componentType": 5125,
      "count": 468,
      "type": "SCALAR"
    },
    {
      "bufferView": 2,
      "byteOffset": 113952,
      "componentType": 5126,
      "count": 160,
      "max": [
        0.1263265609741211,
        0.3998767137527466,
        0.3998755216598511
      ],
      "min": [
        -0.1115654706954956,
        -0.39987504482269287,
        -0.39987602829933167
      ],
      "type": "VEC3"
    },
    {
      "bufferView": 2,
      "byteOffset": 115872,
      "componentType": 5126,
      "count": 160,
      "max": [
        1.0,
        1.0,
        1.0
      ],
      "min": [
        -1.0,
        -1.0,
        -1.0
      ],
      "type": "VEC3"
    },
    {
      "bufferView": 1,
      "byteOffset": 37984,
      "componentType": 5126,
      "count": 160,
      "max": [
        0.4991581439971924,
        0.12094010412693024
      ],
      "min": [
        0.14459310472011566,
        0.00407198304310441
      ],
      "type": "VEC2"
    },
    {
      "bufferView": 0,
      "byteOffset": 49152,
      "componentType": 5125,
      "count": 468,
      "type": "SCALAR"
    },
    {
      "bufferView": 2,
      "byteOffset": 117792,
      "componentType": 5126,
      "count": 160,
      "max": [
        0.12632662057876587,
        0.39987504482269287,
        0.39987561106681824
      ],
      "min": [
        -0.11156541109085083,
        -0.39987659454345703,
        -0.3998759388923645
      ],
      "type": "VEC3"
    },
    {
      "bufferView": 2,
      "byteOffset": 119712,
      "componentType": 5126,
      "count": 160,
      "max": [
        1.0,
        1.0,
        1.0
      ],
      "min": [
        -1.0,
        -1.0,
        -1.0
      ],
      "type": "VEC3"
    },
    {
      "bufferView": 1,
      "byteOffset": 39264,
      "componentType": 5126,
      "count": 160,
      "max": [
        0.4991581439971924,
        0.12094010412693024
      ],
      "min": [
        0.14459310472011566,
        0.00407198304310441
      ],
      "type": "VEC2"
    },
    {
      "bufferView": 0,
      "byteOffset": 51024,
      "componentType": 5125,
      "count": 468,
      "type": "SCALAR"
    },
    {
      "bufferView": 2,
      "byteOffset": 121632,
      "componentType": 5126,
      "count": 3638,
      "max": [
        3.6338930130004883,
        3.6338930130004883,
        1.0827471017837524
      ],
      "min": [
        -3.6338930130004883,
        -3.6338930130004883,
        -5.920363150835328e-07
      ],
      "type": "VEC3"
    },
    {
      "bufferView": 2,
      "byteOffset": 165288,
      "componentType": 5126,
      "count": 3638,
      "max": [
        0.9945166707038879,
        0.963342547416687,
        1.0
      ],
      "min": [
        -0.997002363204956,
        -0.9784979224205017,
        -1.0
      ],
      "type": "VEC3"
    },
    {
      "bufferView": 1,
      "byteOffset": 40544,
      "componentType": 5126,
      "count": 3638,
      "max": [
        0.602258563041687,
        0.5344254970550537
      ],
      "min": [
        0.011915802955627441,
        0.018086683005094528
      ],
      "type": "VEC2"
    },
    {
      "bufferView": 0,
      "byteOffset": 52896,
      "componentType": 5125,
      "count": 4650,
      "type": "SCALAR"
    },
    {
      "bufferView": 2,
      "byteOffset": 208944,
      "componentType": 5126,
      "count": 472,
      "max": [
        -1.3305906057357788,
        0.10990595817565918,
        3.652662992477417
      ],
      "min": [
        -2.540027618408203,
        -0.08647274971008301,
        1.2012134220640291e-07
      ],
      "type": "VEC3"
    },
    {
      "bufferView": 2,
      "byteOffset": 214608,
      "componentType": 5126,
      "count": 472,
      "max": [
        1.0,
        1.0,
        1.0
      ],
      "min": [
        -1.0,
        -1.0,
        -1.0
      ],
      "type": "VEC3"
    },
    {
      "bufferView": 1,
      "byteOffset": 69648,
      "componentType": 5126,
      "count": 472,
      "max": [
        0.8592120409011841,
        0.11386361718177795
      ],
      "min": [
        0.0,
        0.0
      ],
      "type": "VEC2"
    },
    {
      "bufferView": 0,
      "byteOffset": 71496,
      "componentType": 5125,
      "count": 846,
      "type": "SCALAR"
    },
    {
      "bufferView": 2,
      "byteOffset": 220272,
      "componentType": 5126,
      "count": 4,
      "max": [
        -1.3855916261672974,
        -0.049591064453125,
        3.2147183418273926
      ],
      "min": [
        -2.4850265979766846,
        -0.0495913028717041,
        2.676445960998535
      ],
      "type": "VEC3"
    },
    {
      "bufferView": 2,
      "byteOffset": 220320,
      "componentType": 5126,
      "count": 4,
      "max": [
        0.0,
        -1.0,
        -4.4693749146063055e-07
      ],
      "min": [
        0.0,
        -1.0,
        -4.4693749146063055e-07
      ],
      "type": "VEC3"
    },
    {
      "bufferView": 1,
      "byteOffset": 73424,
      "componentType": 5126,
      "count": 4,
      "max": [
        0.9777600765228271,
        0.7374247908592224
      ],
      "min": [
        0.02281010150909424,
        0.26989036798477173
      ],
      "type": "VEC2"
    },
    {
      "bufferView": 0,
      "byteOffset": 74880,
      "componentType": 5125,
      "count": 6,
      "type": "SCALAR"
    }
  ],
  "asset": {
    "extras": {
      "author": "thcyrax (https://sketchfab.com/kitsunegraphics)",
      "license": "CC-BY-4.0 (http://creativecommons.org/licenses/by/4.0/)",
      "source": "https://sketchfab.com/3d-models/environment-kitsune-graphics-a302627b20ff43ddbaa4ec35b56b45d5",
      "title": "ENVIRONMENT - KITSUNE GRAPHICS"
    },
    "generator": "Sketchfab-12.65.0",
    "version": "2.0"
  },
  "bufferViews": [
    {
      "buffer": 0,
      "byteLength": 74904,
      "name": "floatBufferViews",
      "target": 34963
    },
    {
      "buffer": 0,
      "byteLength": 73456,
      "byteOffset": 74904,
      "byteStride": 8,
      "name": "floatBufferViews",
      "target": 34962
    },
    {
      "buffer": 0,
      "byteLength": 220368,
      "byteOffset": 148360,
      "byteStride": 12,
      "name": "floatBufferViews",
      "target": 34962
    }
  ],
  "buffers": [
    {
      "byteLength": 368728,
      "uri": "scene.bin"
    }
  ],
  "images": [
    {
      "uri": "textures/Vehicle_baseColor.png"
    },
    {
      "uri": "textures/environment_baseColor.png"
    },
    {
      "uri": "textures/kisunegraphics_baseColor.png"
    }
  ],
  "materials": [
    {
      "doubleSided": true,
      "name": "Vehicle",
      "pbrMetallicRoughness": {
        "baseColorTexture": {
          "index": 0
        },
        "metallicFactor": 0.0,
        "roughnessFactor": 0.7
      }
    },
    {
      "doubleSided": true,
      "name": "environment",
      "pbrMetallicRoughness": {
        "baseColorTexture": {
          "index": 1
        },
        "metallicFactor": 0.0,
        "roughnessFactor": 0.7
      }
    },
    {
      "doubleSided": true,
      "name": "kisunegraphics",
      "pbrMetallicRoughness": {
        "baseColorTexture": {
          "index": 2
        },
        "metallicFactor": 0.0,
        "roughnessFactor": 0.7
      }
    }
  ],
  "meshes": [
    {
      "name": "RRW_Vehicle_0",
      "primitives": [
        {
          "attributes": {
            "NORMAL": 1,
            "POSITION": 0,
            "TEXCOORD_0": 2
          },
          "indices": 3,
          "material": 0,
          "mode": 4
        }
      ]
    },
    {
      "name": "Body_Vehicle_0",
      "primitives": [
        {
          "attributes": {
            "NORMAL": 5,
            "POSITION": 4,
            "TEXCOORD_0": 6
          },
          "indices": 7,
          "material": 0,
          "mode": 4
        }
      ]
    },
    {
      "name": "FRW_Vehicle_0",
      "primitives": [
        {
          "attributes": {
            "NORMAL": 9,
            "POSITION": 8,
            "TEXCOORD_0": 10
          },
          "indices": 11,
          "material": 0,
          "mode": 4
        }
      ]
    },
    {
      "name": "FLW_Vehicle_0",
      "primitives": [
        {
          "attributes": {
            "NORMAL": 13,
            "POSITION": 12,
            "TEXCOORD_0": 14
          },
          "indices": 15,
          "material": 0,
          "mode": 4
        }
      ]
    },
    {
      "name": "RLW_Vehicle_0",
      "primitives": [
        {
          "attributes": {
            "NORMAL": 17,
            "POSITION": 16,
            "TEXCOORD_0": 18
          },
          "indices": 19,
          "material": 0,
          "mode": 4
        }
      ]
    },
    {
      "name": "Environment_environment_0",
      "primitives": [
        {
          "attributes": {
            "NORMAL": 21,
            "POSITION": 20,
            "TEXCOORD_0": 22
          },
          "indices": 23,
          "material": 1,
          "mode": 4
        }
      ]
    },
    {
      "name": "Environment.001_Vehicle_0",
      "primitives": [
        {
          "attributes": {
            "NORMAL": 25,
            "POSITION": 24,
            "TEXCOORD_0": 26
          },
          "indices": 27,
          "material": 0,
          "mode": 4
        }
      ]
    },
    {
      "name": "Environment.001_kisunegraphics_0",
      "primitives": [
        {
          "attributes": {
            "NORMAL": 29,
            "POSITION": 28,
            "TEXCOORD_0": 30
          },
          "indices": 31,
          "material": 2,
          "mode": 4
        }
      ]
    }
  ],
  "nodes": [
    {
      "children": [
        1
      ],
      "matrix": [
        1.0,
        0.0,
        0.0,
        0.0,
        0.0,
        2.220446049250313e-16,
        -1.0,
        0.0,
        0.0,
        1.0,
        2.220446049250313e-16,
        0.0,
        0.0,
        0.0,
        0.0,
        1.0
      ],
      "name": "Sketchfab_model"
    },
    {
      "children": [
        2
      ],
      "matrix": [
        1.0,
        0.0,
        0.0,
        0.0,
        0.0,
        0.0,
        1.0,
        0.0,
        0.0,
        -1.0,
        0.0,
        0.0,
        0.0,
        0.0,
        0.0,
        1.0
      ],
      "name": "3a4caf3a92b548db90ab89554d1b79bb.fbx"
    },
    {
      "children": [
        3,
        5,
        7,
        9,
        11,
        13,
        15
      ],
      "name": "RootNode"
    },
    {
      "children": [
        4
      ],
      "matrix": [
        90.85716959872376,
        -2.314950173221142e-06,
        41.77289471067022,
        0.0,
        41.77289471066924,
        -1.7356399673040812e-05,
        -90.85716959872258,
        0.0,
        9.353568769521203e-06,
        99.99999999999845,
        -1.4802511794087536e-05,
        0.0,
        -16.43753433227539,
        39.520721435546875,
        -168.66307067871094,
        1.0
      ],
      "name": "RRW"
    },
    {
      "mesh": 0,
      "name": "RRW_Vehicle_0"
    },
    {
      "children": [
        6
      ],
      "matrix": [
        90.85716959872376,
        -2.314950173221142e-06,
        41.77289471067022,
        0.0,
        41.77289471066924,
        -1.7356399673040812e-05,
        -90.85716959872258,
        0.0,
        9.353568769521203e-06,
        99.99999999999845,
        -1.4802511794087536e-05,
        0.0,
        0.0,
        0.0,
        0.0,
        1.0
      ],
      "name": "Body"
    },
    {
      "mesh": 1,
      "name": "Body_Vehicle_0"
    },
    {
      "children": [
        8
      ],
      "matrix": [
        57.79817574014145,
        4.000484615795941e-06,
        81.60496848300174,
        0.0,
        81.60496848300158,
        -1.0643802839105376e-05,
        -57.798175740140834,
        0.0,
        6.373664818148939e-06,
        99.99999999999936,
        -9.416518076399427e-06,
        0.0,
        -153.35646057128906,
        39.520782470703125,
        129.1392822265625,
        1.0
      ],
      "name": "FRW"
    },
    {
      "mesh": 2,
      "name": "FRW_Vehicle_0"
    },
    {
      "children": [
        10
      ],
      "matrix": [
        57.79817574014145,
        4.000484615795941e-06,
        81.60496848300174,
        0.0,
        81.60496848300158,
        -1.0643802839105376e-05,
        -57.798175740140834,
        0.0,
        6.373664818148939e-06,
        99.99999999999936,
        -9.416518076399427e-06,
        0.0,
        8.634450912475586,
        39.520782470703125,
        203.61697387695313,
        1.0
      ],
      "name": "FLW"
    },
    {
      "mesh": 3,
      "name": "FLW_Vehicle_0"
    },
    {
      "children": [
        12
      ],
      "matrix": [
        90.85716959872376,
        -2.314950173221142e-06,
        41.77289471067022,
        0.0,
        41.77289471066924,
        -1.7356399673040812e-05,
        -90.85716959872258,
        0.0,
        9.353568769521203e-06,
        99.99999999999845,
        -1.4802511794087536e-05,
        0.0,
        145.55337524414063,
        39.520721435546875,
        -94.18544006347656,
        1.0
      ],
      "name": "RLW"
    },
    {
      "mesh": 4,
      "name": "RLW_Vehicle_0"
    },
    {
      "children": [
        14
      ],
      "matrix": [
        119.36715698242188,
        0.0,
        0.0,
        0.0,
        -0.0,
        -1.9447378312647565e-05,
        -119.3671569824203,
        0.0,
        0.0,
        119.3671569824203,
        -1.9447378312647565e-05,
        0.0,
        -2.9802322387695313e-06,
        0.0,
        0.0,
        1.0
      ],
      "name": "Environment"
    },
    {
      "mesh": 5,
      "name": "Environment_environment_0"
    },
    {
      "children": [
        16,
        17
      ],
      "matrix": [
        119.36715698242188,
        0.0,
        0.0,
        0.0,
        -0.0,
        -1.9447378312647565e-05,
        -119.3671569824203,
        0.0,
        0.0,
        119.3671569824203,
        -1.9447378312647565e-05,
        0.0,
        -2.9802322387695313e-06,
        0.0,
        0.0,
        1.0
      ],
      "name": "Environment.001"
    },
    {
      "mesh": 6,
      "name": "Environment.001_Vehicle_0"
    },
    {
      "mesh": 7,
      "name": "Environment.001_kisunegraphics_0"
    }
  ],
  "samplers": [
    {
      "magFilter": 9729,
      "minFilter": 9987,
      "wrapS": 10497,
      "wrapT": 10497
    },
    {
      "magFilter": 9729,
      "minFilter": 9729,
      "wrapS": 10497,
      "wrapT": 10497
    }
  ],
  "scene": 0,
  "scenes": [
    {
      "name": "Sketchfab_Scene",
      "nodes": [
        0
      ]
    }
  ],
  "textures": [
    {
      "sampler": 0,
      "source": 0
    },
    {
      "sampler": 0,
      "source": 1
    },
    {
      "sampler": 1,
      "source": 2
    }
  ]
}
